<svg xmlns="http://www.w3.org/2000/svg" width="1678" height="625" viewBox="0 0 1678 625"><rect width="1678" height="625" fill="#ffffff"/><g><path d="M 1470.44 545.58 C1467.67,543.55 1469.38,542.50 1473.01,544.01 C1476.92,545.62 1480.62,544.14 1482.05,540.37 C1483.32,537.03 1482.55,536.19 1480.18,538.34 C1477.57,540.70 1474.63,540.40 1471.08,537.41 C1468.44,535.19 1468.00,534.15 1468.00,530.07 C1468.00,523.28 1469.78,521.97 1478.83,522.11 L 1486.00 522.22 L 1486.00 531.06 C1486.00,540.90 1484.95,544.25 1481.34,545.89 C1477.97,547.43 1472.76,547.28 1470.44,545.58 ZM 1480.55 534.55 C1483.52,531.57 1483.68,528.68 1481.00,526.00 C1478.60,523.60 1474.74,523.41 1472.57,525.57 C1470.18,527.96 1470.55,533.57 1473.22,535.44 C1476.27,537.58 1477.69,537.41 1480.55,534.55 ZM 1528.00 534.58 C1528.00,524.06 1528.25,522.00 1529.50,522.00 C1530.32,522.00 1531.00,522.54 1531.00,523.20 C1531.00,524.13 1531.27,524.13 1532.20,523.20 C1532.86,522.54 1535.51,522.00 1538.08,522.00 C1541.96,522.00 1543.05,522.43 1544.39,524.46 C1545.27,525.82 1546.00,528.78 1546.00,531.04 C1546.00,534.29 1545.36,535.79 1542.97,538.19 C1539.93,541.23 1539.23,541.32 1533.32,539.48 C1531.37,538.87 1531.10,539.21 1530.82,542.57 C1530.64,544.65 1529.94,546.53 1529.25,546.76 C1528.29,547.07 1528.00,544.20 1528.00,534.58 ZM 1541.00 536.00 C1543.43,533.57 1543.66,527.81 1541.43,525.57 C1539.38,523.52 1535.14,523.56 1532.83,525.65 C1530.26,527.98 1530.45,533.41 1533.19,535.96 C1535.95,538.54 1538.45,538.55 1541.00,536.00 ZM 1507.56 538.65 C1505.30,536.39 1505.00,535.27 1505.00,529.05 C1505.00,523.55 1505.32,522.00 1506.45,522.00 C1507.55,522.00 1507.98,523.64 1508.20,528.72 C1508.48,534.91 1508.72,535.55 1511.31,536.97 C1514.01,538.44 1514.21,538.39 1516.65,535.58 C1518.93,532.97 1519.12,532.12 1518.52,527.33 C1517.96,522.87 1518.11,522.00 1519.43,522.00 C1520.74,522.00 1521.00,523.48 1521.00,530.96 L 1521.00 539.92 L 1518.25 539.87 C1516.74,539.85 1514.29,540.14 1512.81,540.52 C1510.70,541.06 1509.57,540.66 1507.56,538.65 ZM 1553.40 537.60 C1551.24,535.44 1550.00,533.23 1550.00,531.55 C1550.00,522.50 1559.94,517.79 1566.08,523.92 C1570.93,528.78 1569.92,536.44 1564.02,539.49 C1559.60,541.77 1557.14,541.34 1553.40,537.60 ZM 1564.00 536.00 C1567.99,532.01 1565.44,523.99 1560.19,524.02 C1556.94,524.03 1555.66,524.81 1554.15,527.68 C1552.43,530.96 1552.74,532.83 1555.45,535.55 C1558.43,538.52 1561.32,538.68 1564.00,536.00 ZM 1492.00 531.00 C1492.00,523.67 1492.28,522.00 1493.50,522.00 C1494.32,522.00 1495.00,522.46 1495.00,523.02 C1495.00,523.59 1496.15,523.29 1497.55,522.37 C1499.35,521.20 1500.42,521.02 1501.16,521.76 C1502.54,523.14 1501.37,525.00 1499.14,525.00 C1496.05,525.00 1495.00,527.22 1495.00,533.70 C1495.00,538.63 1494.67,540.00 1493.50,540.00 C1492.28,540.00 1492.00,538.33 1492.00,531.00 ZM 1306.72 527.96 C1300.47,526.40 1291.00,520.39 1291.00,517.98 C1291.00,515.59 1295.15,516.23 1300.47,519.44 C1310.30,525.36 1319.39,525.11 1326.66,518.72 C1331.62,514.37 1333.00,510.51 1333.00,501.00 L 1333.00 492.93 L 1329.35 496.58 C1312.72,513.21 1284.00,499.87 1284.00,475.50 C1284.00,467.52 1286.56,460.43 1291.32,455.25 C1301.88,443.75 1318.15,442.85 1328.69,453.19 L 1332.88 457.30 L 1333.19 452.40 C1333.48,447.89 1333.72,447.47 1336.25,447.18 L 1339.00 446.87 L 1338.96 477.68 C1338.91,510.65 1338.63,512.86 1333.74,519.28 C1328.43,526.23 1315.91,530.26 1306.72,527.96 ZM 1321.07 496.25 C1328.58,492.44 1332.30,486.33 1332.83,476.96 C1333.30,468.64 1331.85,463.94 1327.20,458.80 C1322.37,453.45 1319.15,452.00 1312.11,452.00 C1305.03,452.00 1301.51,453.17 1297.66,456.81 C1285.74,468.08 1288.47,488.74 1302.86,496.21 C1309.65,499.74 1314.17,499.75 1321.07,496.25 ZM 1187.20 501.41 C1177.39,496.52 1171.99,487.17 1172.01,475.07 C1172.02,459.26 1181.72,447.69 1196.05,446.37 C1204.65,445.57 1210.17,447.20 1215.45,452.06 C1217.80,454.23 1220.01,456.00 1220.36,456.00 C1220.71,456.00 1221.00,453.95 1221.00,451.43 C1221.00,447.04 1221.11,446.88 1223.75,447.18 L 1226.50 447.50 L 1226.78 473.50 C1226.94,487.80 1226.81,500.54 1226.50,501.81 C1226.08,503.51 1225.34,504.05 1223.71,503.81 C1221.76,503.54 1221.46,502.81 1221.20,497.75 C1221.04,494.59 1220.59,492.01 1220.20,492.01 C1219.82,492.02 1218.52,493.54 1217.32,495.39 C1212.00,503.60 1197.44,506.51 1187.20,501.41 ZM 1210.12 495.54 C1222.66,487.24 1224.41,468.17 1213.62,457.37 C1205.20,448.93 1192.81,448.93 1184.37,457.37 C1179.71,462.02 1178.01,466.74 1178.01,475.00 C1178.01,485.63 1181.97,492.73 1190.23,496.95 C1196.01,499.90 1204.43,499.30 1210.12,495.54 ZM 1246.48 502.81 C1246.20,502.07 1246.09,489.33 1246.23,474.49 L 1246.50 447.50 L 1249.25 447.18 C1251.97,446.87 1252.00,446.93 1252.01,452.68 L 1252.02 458.50 L 1254.58 455.25 C1258.34,450.48 1265.00,446.96 1271.53,446.28 L 1277.16 445.70 L 1276.83 448.60 C1276.52,451.28 1276.12,451.54 1271.50,452.04 C1265.29,452.72 1260.84,455.03 1257.62,459.25 C1253.28,464.95 1252.68,467.83 1252.08,486.00 C1251.51,503.20 1251.46,503.51 1249.25,503.82 C1248.01,504.00 1246.76,503.54 1246.48,502.81 ZM 1373.39 502.38 C1367.48,500.29 1361.10,494.41 1358.37,488.56 C1355.77,482.97 1355.16,472.57 1357.03,465.82 C1360.90,451.91 1376.67,443.12 1390.87,446.96 C1400.68,449.61 1409.48,462.35 1408.80,472.92 L 1408.50 477.50 L 1385.25 477.77 L 1362.00 478.04 L 1362.00 480.45 C1362.00,484.06 1363.80,488.15 1366.81,491.38 C1370.44,495.26 1378.61,498.98 1383.50,498.98 C1387.82,498.98 1396.65,495.35 1398.87,492.66 C1400.43,490.78 1403.55,490.46 1404.55,492.08 C1405.58,493.75 1400.06,498.99 1394.50,501.62 C1388.65,504.38 1379.91,504.70 1373.39,502.38 ZM 1402.53 468.28 C1400.21,455.93 1390.76,449.46 1378.69,451.96 C1370.01,453.76 1362.10,462.21 1362.02,469.75 L 1362.00 472.00 L 1382.61 472.00 L 1403.22 472.00 L 1402.53 468.28 ZM 1425.70 503.37 C1425.32,502.98 1425.00,490.14 1425.00,474.83 L 1425.00 447.00 L 1427.50 447.00 C1429.80,447.00 1430.00,447.37 1430.00,451.50 C1430.00,453.98 1430.29,456.00 1430.64,456.00 C1430.99,456.00 1433.19,454.23 1435.53,452.08 C1446.80,441.69 1464.42,445.16 1469.69,458.80 C1471.22,462.78 1471.50,466.57 1471.50,483.48 C1471.50,501.92 1471.36,503.49 1469.70,503.82 C1465.40,504.65 1465.00,502.83 1465.00,482.35 C1465.00,468.11 1464.63,462.06 1463.62,459.64 C1458.45,447.26 1439.78,448.92 1432.76,462.38 C1430.86,466.02 1430.55,468.66 1430.05,484.99 C1429.59,500.60 1429.26,503.52 1427.95,503.77 C1427.10,503.94 1426.09,503.75 1425.70,503.37 ZM 1492.23 502.83 C1491.32,501.92 1491.00,494.56 1491.00,474.30 L 1491.00 447.00 L 1494.02 447.00 L 1497.03 447.00 L 1496.77 475.24 C1496.54,499.57 1496.29,503.51 1494.98,503.77 C1494.14,503.93 1492.91,503.51 1492.23,502.83 ZM 1530.43 502.11 C1508.94,492.35 1507.23,462.03 1527.46,449.52 C1531.84,446.81 1533.18,446.50 1540.42,446.50 C1547.47,446.50 1549.11,446.86 1553.28,449.31 C1555.91,450.85 1558.60,452.99 1559.27,454.06 C1561.11,457.01 1561.85,456.42 1562.19,451.75 C1562.47,447.95 1562.79,447.47 1565.25,447.18 L 1568.00 446.87 L 1568.00 474.96 C1568.00,499.12 1567.79,503.14 1566.49,503.64 C1563.85,504.65 1562.00,502.04 1562.00,497.31 L 1562.00 492.86 L 1558.65 496.41 C1551.78,503.69 1539.41,506.19 1530.43,502.11 ZM 1550.59 496.34 C1569.42,486.62 1564.76,454.36 1544.13,451.52 C1534.71,450.22 1526.29,454.69 1521.74,463.41 C1518.73,469.18 1518.73,480.83 1521.76,486.62 C1524.11,491.12 1528.79,495.52 1533.50,497.67 C1537.51,499.49 1545.73,498.85 1550.59,496.34 ZM 266.50 373.67 C256.31,370.28 248.82,364.01 243.08,354.06 C190.77,263.45 161.25,213.03 127.69,157.00 C109.93,127.35 107.58,122.93 107.25,118.50 C106.42,107.56 114.78,99.31 125.66,100.35 C128.50,100.62 131.94,101.57 133.32,102.47 C134.74,103.40 140.92,112.98 147.73,124.80 C154.29,136.19 169.01,161.70 180.44,181.50 C214.21,240.01 218.46,247.41 245.07,294.20 C272.86,343.05 273.38,343.74 279.91,341.04 C282.32,340.04 284.10,337.77 287.67,331.12 C290.23,326.38 296.91,314.17 302.54,304.00 C308.16,293.83 324.91,263.23 339.76,236.00 C369.27,181.91 407.75,112.20 410.66,107.58 C415.10,100.54 423.67,98.21 431.39,101.95 C437.52,104.91 440.43,109.74 440.46,116.97 C440.49,122.37 439.88,123.58 413.93,169.50 C399.32,195.35 369.64,248.45 347.98,287.50 C305.46,364.12 304.13,366.16 293.30,371.47 C288.69,373.72 285.88,374.35 279.03,374.64 C273.66,374.86 269.02,374.50 266.50,373.67 ZM 487.42 374.03 C486.27,373.57 484.14,371.76 482.67,370.02 L 480.00 366.85 L 480.00 273.37 C480.00,193.33 480.21,179.49 481.46,177.07 C485.47,169.33 505.46,168.79 510.05,176.31 C511.94,179.41 511.99,182.16 512.00,272.80 C512.00,376.27 512.36,370.70 505.47,373.58 C501.78,375.12 490.79,375.39 487.42,374.03 ZM 630.76 373.97 C615.44,371.39 596.79,361.46 583.13,348.61 C566.98,333.43 554.85,310.20 551.46,288.00 C547.34,261.00 552.89,236.67 568.57,212.93 C573.64,205.27 586.98,192.15 595.31,186.65 C604.05,180.88 616.71,175.28 626.11,173.03 C633.51,171.25 637.91,171.01 663.29,171.01 C694.94,171.00 701.23,171.74 714.06,176.96 C723.89,180.96 730.97,185.45 738.97,192.75 C742.74,196.19 746.09,199.00 746.41,199.00 C746.74,199.00 747.00,178.31 747.00,153.02 L 747.00 107.03 L 749.92 103.77 L 752.84 100.50 L 762.82 100.50 C774.02,100.50 776.00,101.43 778.04,107.63 C778.85,110.08 779.02,135.20 778.66,197.76 C778.12,290.55 778.17,289.59 772.94,305.23 C770.17,313.50 764.27,325.24 758.92,333.12 C745.00,353.61 721.83,369.05 698.16,373.59 C690.06,375.15 639.44,375.43 630.76,373.97 ZM 697.61 340.27 C721.55,332.43 738.53,313.92 744.98,288.59 C754.25,252.24 732.09,214.10 696.39,204.97 C689.73,203.27 685.32,203.00 664.09,203.01 C635.68,203.03 630.87,203.80 618.76,210.25 C594.37,223.25 580.76,247.79 582.32,276.00 C582.98,288.07 584.68,294.44 590.03,304.99 C598.62,321.94 614.70,335.47 632.06,340.37 C640.43,342.73 641.86,342.82 667.50,342.53 C688.31,342.30 692.31,342.00 697.61,340.27 ZM 818.91 372.72 C817.05,371.47 814.97,369.33 814.28,367.97 C812.32,364.11 812.49,260.67 814.47,248.50 C819.42,218.08 837.18,192.48 861.96,180.02 C877.90,172.01 879.96,171.66 913.15,171.23 L 942.80 170.85 L 946.14 173.83 C949.32,176.68 949.49,177.19 949.84,184.92 C950.29,194.77 949.69,197.46 946.31,200.59 C943.71,203.00 943.66,203.00 920.10,203.02 C892.96,203.04 886.65,203.98 876.00,209.57 C866.35,214.64 857.02,224.65 851.94,235.39 C845.24,249.54 845.00,252.18 845.00,312.51 C845.00,371.30 845.09,370.35 839.03,373.48 C837.24,374.41 833.41,375.00 829.20,375.00 C823.67,375.00 821.62,374.55 818.91,372.72 ZM 1034.00 374.35 C1012.47,370.37 991.08,357.64 976.27,340.00 C968.09,330.26 958.85,311.98 955.28,298.50 C952.97,289.77 952.63,286.47 952.57,272.50 C952.52,260.33 952.93,254.73 954.30,249.10 C962.94,213.48 987.42,186.25 1021.50,174.35 C1029.42,171.58 1029.78,171.55 1058.00,171.22 C1085.77,170.90 1086.75,170.95 1096.37,173.42 C1128.86,181.74 1154.02,206.82 1164.69,241.50 L 1167.46 250.50 L 1167.78 308.86 C1168.13,373.71 1168.42,370.67 1161.45,373.58 C1156.97,375.46 1146.68,375.40 1142.97,373.48 C1138.31,371.07 1137.00,367.36 1137.00,356.55 C1137.00,347.93 1136.09,344.71 1134.70,348.35 C1133.57,351.29 1117.99,362.58 1109.49,366.62 C1094.14,373.91 1091.83,374.30 1062.50,374.57 C1048.20,374.70 1035.38,374.60 1034.00,374.35 ZM 1090.58 339.64 C1130.02,326.86 1148.61,278.00 1129.05,238.50 C1122.37,225.01 1113.36,215.72 1100.80,209.40 C1089.94,203.93 1084.24,203.03 1060.36,203.01 C1041.19,203.00 1038.48,203.22 1031.20,205.32 C1011.81,210.94 996.46,225.77 987.85,247.19 C984.57,255.36 984.52,255.77 984.51,271.00 C984.50,284.69 984.78,287.32 986.87,293.50 C994.36,315.57 1008.71,331.46 1027.56,338.56 C1037.58,342.33 1042.85,342.92 1063.50,342.57 C1080.77,342.29 1083.23,342.02 1090.58,339.64 ZM 1280.76 372.94 C1278.47,371.73 1276.24,369.43 1275.00,366.99 C1272.99,363.06 1272.97,361.85 1273.23,238.72 C1273.48,121.90 1273.61,114.25 1275.26,111.72 C1277.88,107.72 1281.23,105.93 1287.17,105.35 C1294.37,104.64 1299.81,106.59 1302.71,110.90 L 1305.00 114.30 L 1305.00 239.90 C1304.99,361.02 1304.93,365.61 1303.11,368.58 C1299.33,374.79 1288.34,376.94 1280.76,372.94 ZM 1345.50 373.43 C1338.18,369.63 1334.09,362.42 1335.53,355.86 C1335.89,354.22 1342.69,337.49 1350.65,318.69 C1375.87,259.07 1394.13,215.79 1397.98,206.50 C1400.03,201.55 1407.55,183.55 1414.69,166.50 C1421.83,149.45 1429.18,131.68 1431.01,127.00 C1435.14,116.47 1439.53,111.79 1446.95,110.01 C1459.23,107.06 1468.57,112.35 1473.42,125.00 C1474.37,127.47 1478.45,137.38 1482.49,147.00 C1490.84,166.92 1517.55,231.20 1530.49,262.50 C1535.26,274.05 1545.88,299.55 1554.08,319.17 C1565.70,346.94 1569.00,355.82 1569.00,359.27 C1569.00,370.81 1555.85,378.53 1545.33,373.17 C1543.12,372.04 1540.65,370.08 1539.84,368.81 C1538.64,366.92 1521.87,326.77 1518.09,316.75 L 1517.05 314.00 L 1470.93 314.00 C1419.80,314.00 1420.03,314.03 1416.02,307.53 C1413.52,303.49 1413.25,293.35 1415.52,288.97 C1418.74,282.74 1419.46,282.64 1462.96,282.25 C1484.67,282.06 1502.59,281.75 1502.78,281.55 C1503.38,280.95 1453.29,161.50 1452.43,161.50 C1451.99,161.50 1450.55,164.20 1449.24,167.50 C1447.92,170.80 1439.94,189.93 1431.50,210.00 C1423.06,230.07 1412.34,255.73 1407.69,267.00 C1403.04,278.27 1394.63,298.30 1389.02,311.50 C1383.40,324.70 1375.67,342.92 1371.84,351.99 C1368.01,361.06 1364.12,369.33 1363.19,370.38 C1359.25,374.80 1350.92,376.24 1345.50,373.43 ZM 489.56 144.51 C480.54,141.29 475.67,134.41 475.67,124.87 C475.67,104.91 501.69,96.87 512.67,113.42 C515.86,118.24 516.84,125.92 514.99,131.54 C513.31,136.61 506.49,143.24 501.38,144.77 C496.24,146.31 494.50,146.27 489.56,144.51 ZM 197.64 140.54 C189.72,137.71 184.00,129.57 184.00,121.10 C184.00,114.80 185.30,111.37 189.31,107.13 C197.93,98.02 210.20,97.75 218.62,106.49 C229.08,117.34 225.63,133.60 211.50,140.11 C206.76,142.30 202.90,142.41 197.64,140.54 Z" fill="#06235b"/></g></svg>