<svg xmlns="http://www.w3.org/2000/svg" viewBox="0 0 900 900" preserveAspectRatio="xMidYMid slice" width="900" height="900">
  <defs>
    <linearGradient id="bg-a" x1="0" y1="0" x2="0" y2="1">
      <stop offset="0%" stop-color="#0d2f4a"/>
      <stop offset="100%" stop-color="#071729"/>
    </linearGradient>
  </defs>

  <!-- Background -->
  <rect width="900" height="900" fill="url(#bg-a)"/>

  <!-- Subtle grid -->
  <g stroke="rgba(255,255,255,0.035)" stroke-width="1">
    <line x1="0" y1="150" x2="900" y2="150"/>
    <line x1="0" y1="250" x2="900" y2="250"/>
    <line x1="0" y1="350" x2="900" y2="350"/>
    <line x1="0" y1="450" x2="900" y2="450"/>
    <line x1="0" y1="550" x2="900" y2="550"/>
    <line x1="0" y1="650" x2="900" y2="650"/>
    <line x1="225" y1="0" x2="225" y2="900"/>
    <line x1="450" y1="0" x2="450" y2="900"/>
    <line x1="675" y1="0" x2="675" y2="900"/>
  </g>

  <!-- Badge -->
  <rect x="60" y="130" width="196" height="30" rx="15" fill="rgba(0,178,235,0.12)" stroke="rgba(0,178,235,0.28)" stroke-width="1"/>
  <text x="158" y="150" fill="#00B2EB" font-size="11" font-family="'Courier New', Consolas, monospace" text-anchor="middle" font-weight="700" letter-spacing="0.14em">VIDRA ANALYTICS</text>

  <!-- Main heading -->
  <text x="60" y="158" fill="rgba(255,255,255,0.92)" font-size="44" font-family="system-ui,-apple-system,sans-serif" font-weight="600" letter-spacing="-0.03em">Auditoría</text>
  <text x="60" y="210" fill="rgba(255,255,255,0.92)" font-size="44" font-family="system-ui,-apple-system,sans-serif" font-weight="600" letter-spacing="-0.03em">de datos</text>
  <text x="60" y="252" fill="rgba(255,255,255,0.42)" font-size="18" font-family="system-ui,-apple-system,sans-serif">Estimación de costes · Construcción</text>

  <!-- Table header -->
  <rect x="60" y="288" width="780" height="48" rx="8" fill="rgba(0,178,235,0.07)" stroke="rgba(0,178,235,0.18)" stroke-width="1"/>
  <text x="80"  y="318" fill="rgba(255,255,255,0.45)" font-size="12" font-family="'Courier New',monospace" font-weight="700" letter-spacing="0.1em">PARTIDA</text>
  <text x="320" y="318" fill="rgba(255,255,255,0.45)" font-size="12" font-family="'Courier New',monospace" font-weight="700" letter-spacing="0.1em">€ REAL</text>
  <text x="500" y="318" fill="rgba(255,255,255,0.45)" font-size="12" font-family="'Courier New',monospace" font-weight="700" letter-spacing="0.1em">PRED. LSTM</text>
  <text x="700" y="318" fill="rgba(255,255,255,0.45)" font-size="12" font-family="'Courier New',monospace" font-weight="700" letter-spacing="0.1em">DELTA</text>

  <!-- Row 1 -->
  <rect x="60" y="352" width="780" height="54" rx="6" fill="rgba(255,255,255,0.025)"/>
  <text x="80"  y="384" fill="rgba(255,255,255,0.82)" font-size="14" font-family="'Courier New',monospace">Cimentación — B7</text>
  <text x="320" y="384" fill="rgba(255,255,255,0.82)" font-size="14" font-family="'Courier New',monospace">142.800 €</text>
  <text x="500" y="384" fill="#00B2EB" font-size="14" font-family="'Courier New',monospace">138.460 €</text>
  <rect x="700" y="365" width="90" height="26" rx="13" fill="rgba(34,197,94,0.14)"/>
  <text x="745" y="383" fill="rgba(34,197,94,0.88)" font-size="13" font-family="'Courier New',monospace" font-weight="700" text-anchor="middle">−3.0%</text>

  <!-- Row 2 -->
  <rect x="60" y="422" width="780" height="54" rx="6" fill="rgba(255,255,255,0.01)"/>
  <text x="80"  y="454" fill="rgba(255,255,255,0.82)" font-size="14" font-family="'Courier New',monospace">Estructura metálica</text>
  <text x="320" y="454" fill="rgba(255,255,255,0.82)" font-size="14" font-family="'Courier New',monospace">89.200 €</text>
  <text x="500" y="454" fill="#00B2EB" font-size="14" font-family="'Courier New',monospace">91.550 €</text>
  <rect x="700" y="435" width="90" height="26" rx="13" fill="rgba(239,68,68,0.14)"/>
  <text x="745" y="453" fill="rgba(239,68,68,0.88)" font-size="13" font-family="'Courier New',monospace" font-weight="700" text-anchor="middle">+2.6%</text>

  <!-- Row 3 -->
  <rect x="60" y="492" width="780" height="54" rx="6" fill="rgba(255,255,255,0.025)"/>
  <text x="80"  y="524" fill="rgba(255,255,255,0.82)" font-size="14" font-family="'Courier New',monospace">Cerramientos — C12</text>
  <text x="320" y="524" fill="rgba(255,255,255,0.82)" font-size="14" font-family="'Courier New',monospace">215.600 €</text>
  <text x="500" y="524" fill="#00B2EB" font-size="14" font-family="'Courier New',monospace">209.800 €</text>
  <rect x="700" y="505" width="90" height="26" rx="13" fill="rgba(34,197,94,0.14)"/>
  <text x="745" y="523" fill="rgba(34,197,94,0.88)" font-size="13" font-family="'Courier New',monospace" font-weight="700" text-anchor="middle">−2.7%</text>

  <!-- Row 4 -->
  <rect x="60" y="562" width="780" height="54" rx="6" fill="rgba(255,255,255,0.01)"/>
  <text x="80"  y="594" fill="rgba(255,255,255,0.82)" font-size="14" font-family="'Courier New',monospace">Instalaciones eléctricas</text>
  <text x="320" y="594" fill="rgba(255,255,255,0.82)" font-size="14" font-family="'Courier New',monospace">67.900 €</text>
  <text x="500" y="594" fill="#00B2EB" font-size="14" font-family="'Courier New',monospace">66.200 €</text>
  <rect x="700" y="575" width="90" height="26" rx="13" fill="rgba(34,197,94,0.14)"/>
  <text x="745" y="593" fill="rgba(34,197,94,0.88)" font-size="13" font-family="'Courier New',monospace" font-weight="700" text-anchor="middle">−2.5%</text>

  <!-- Row 5 -->
  <rect x="60" y="632" width="780" height="54" rx="6" fill="rgba(255,255,255,0.025)"/>
  <text x="80"  y="664" fill="rgba(255,255,255,0.82)" font-size="14" font-family="'Courier New',monospace">Revestimientos y acabados</text>
  <text x="320" y="664" fill="rgba(255,255,255,0.82)" font-size="14" font-family="'Courier New',monospace">48.300 €</text>
  <text x="500" y="664" fill="#00B2EB" font-size="14" font-family="'Courier New',monospace">47.100 €</text>
  <rect x="700" y="645" width="90" height="26" rx="13" fill="rgba(34,197,94,0.14)"/>
  <text x="745" y="663" fill="rgba(34,197,94,0.88)" font-size="13" font-family="'Courier New',monospace" font-weight="700" text-anchor="middle">−2.5%</text>

  <!-- Tech tags -->
  <rect x="60"  y="730" width="140" height="30" rx="15" fill="rgba(0,178,235,0.1)"  stroke="rgba(0,178,235,0.22)" stroke-width="1"/>
  <text x="130" y="750" fill="#00B2EB" font-size="11" font-family="'Courier New',monospace" text-anchor="middle">LSTM + CatBoost</text>

  <rect x="214" y="730" width="140" height="30" rx="15" fill="rgba(255,255,255,0.04)" stroke="rgba(255,255,255,0.1)" stroke-width="1"/>
  <text x="284" y="750" fill="rgba(255,255,255,0.45)" font-size="11" font-family="'Courier New',monospace" text-anchor="middle">LightGBM · XGB</text>

  <rect x="368" y="730" width="140" height="30" rx="15" fill="rgba(255,255,255,0.04)" stroke="rgba(255,255,255,0.1)" stroke-width="1"/>
  <text x="438" y="750" fill="rgba(255,255,255,0.45)" font-size="11" font-family="'Courier New',monospace" text-anchor="middle">FastAPI · Docker</text>
</svg>
